<svg xmlns="http://www.w3.org/2000/svg" viewBox="0 0 512 512" width="512" height="512">
  <path d="M437.25 81.425l-168.5-80.25h-25.5l-168.5 80.25-37.25 160 13.75 227.25 192 43.25 192-43.25 13.75-227.25-37.25-160z" fill="#E17726"/>
  <path d="M414.75 101.175l-158-75.25-158 75.25-31.75 130.5.75 3.75 5.5 12.25 183.5 26.5 183.5-26.5 5.5-12.25.75-3.75-31.75-130.5z" fill="#E27625"/>
  <path d="M256.75 364.175l91.75-43.25-91.75-140.25-91.75 140.25 91.75 43.25z" fill="#E27625"/>
  <path d="M121.25 290.675l45-67.75-87.25-26.5 42.25 94.25z" fill="#D5BFB2"/>
  <path d="M392.25 290.675l42.25-94.25-87.25 26.5 45 67.75z" fill="#D5BFB2"/>
  <path d="M337.25 223.425l-80.5 26.5-80.5-26.5 3.75 33.5-4.5 17.5 5.5 3 75.75 55.25 75.75-55.25 5.5-3-4.5-17.5 3.75-33.5z" fill="#233447"/>
  <path d="M256.75 261.175l-91.75-26.5 31.75 59.5 60 9.5 60-9.5 31.75-59.5-91.75 26.5z" fill="#CC6228"/>
  <path d="M256.75 261.175l-60 53 60-9.5 60 9.5-60-53z" fill="#E27525"/>
  <path d="M256.75 364.175l60-53-10 73-50 20.5-50-20.5-10-73 60 53z" fill="#F5841F"/>
  <path d="M348.5 261.175l-10 73-81.75 30-81.75-30-10-73 57 42.5-.75 16 3.75 2.5 31.75 9.5 31.75-9.5 3.75-2.5-.75-16 57-42.5z" fill="#C0AC9D"/>
  <path d="M290.25 192.675l-33.5 67.75-33.5-67.75-31.75 59.5 31.75 59.5 3.75 2.5 29.75 22 29.75-22 3.75-2.5 31.75-59.5-31.75-59.5z" fill="#161616"/>
</svg> 