<svg xmlns="http://www.w3.org/2000/svg" width="16" height="16" viewBox="0 0 16 16" fill="none">
  <path d="M8.79199 3.63965L11.5833 5.18965C12.25 5.56465 12.7083 6.36465 12.7083 7.12132V10.1797C12.7083 10.9363 12.25 11.7363 11.5833 12.1113L8.79199 13.6613C8.12533 14.0363 7.12533 14.0363 6.45866 13.6613L3.66699 12.1113C3.00033 11.7363 2.54199 10.9363 2.54199 10.1797V7.12132C2.54199 6.36465 3.00033 5.56465 3.66699 5.18965L6.45866 3.63965C7.12533 3.26465 8.12533 3.26465 8.79199 3.63965Z" stroke="#8247E5" stroke-width="1.5" stroke-linecap="round" stroke-linejoin="round"/>
  <path d="M5.59961 9.13801V8.13801L10.3996 5.59967" stroke="#8247E5" stroke-width="1.5" stroke-linecap="round" stroke-linejoin="round"/>
  <path d="M5.59961 8.13799L7.66628 9.33799" stroke="#8247E5" stroke-width="1.5" stroke-linecap="round" stroke-linejoin="round"/>
  <path d="M10.3994 10.6713L5.59961 8.13799" stroke="#8247E5" stroke-width="1.5" stroke-linecap="round" stroke-linejoin="round"/>
  <path d="M10.4004 10.6713V7.26465" stroke="#8247E5" stroke-width="1.5" stroke-linecap="round" stroke-linejoin="round"/>
</svg> 